PathFileType	4	(X/Y/Z)	Walk7.trc
DataRate	CameraRate	NumFrames	NumMarkers	Units	OrigDataRate	OrigDataStartFrame	OrigNumFrames
200.000000	200.000000	6	71	mm	200.000000	488	658
Frame#	Times		T10		RPSI		LowerBodyModelVer		RTH4		RElbow		C7		LBHD		LToe		LMT5		RBHD		RBack		LMT1		LTB1		LWRU		LLMAL		LTB3		RTH2		RUA1		LElbowM		LTB4		LLFC		LTB2		LTH3		RLFC		LACR1		RTB2		RTH3		RMFC		RKJC		RTB3		LASI		LElbow		LUA1		RTB1		RToe		LMFC		LKJC		RFA1		RWRU		RCAR		RMT1		RTB4		RWRR		RCAL		RMT5		RMMAL		RLMAL		LFHD		RFHD		LPSI		SACR		LCAR		LMMAL		LTH4		LCAL		RASI		LTH1		LHJC		MidPelvis		OPelvis		PELOrigin		RHJC		XPelvis		YPelvis		ZPelvis		LWRR		LTH2		RTH1		RACR1		RElbowM		STRN
			X1	Y1	Z1	X2	Y2	Z2	X3	Y3	Z3	X4	Y4	Z4	X5	Y5	Z5	X6	Y6	Z6	X7	Y7	Z7	X8	Y8	Z8	X9	Y9	Z9	X10	Y10	Z10	X11	Y11	Z11	X12	Y12	Z12	X13	Y13	Z13	X14	Y14	Z14	X15	Y15	Z15	X16	Y16	Z16	X17	Y17	Z17	X18	Y18	Z18	X19	Y19	Z19	X20	Y20	Z20	X21	Y21	Z21	X22	Y22	Z22	X23	Y23	Z23	X24	Y24	Z24	X25	Y25	Z25	X26	Y26	Z26	X27	Y27	Z27	X28	Y28	Z28	X29	Y29	Z29	X30	Y30	Z30	X31	Y31	Z31	X32	Y32	Z32	X33	Y33	Z33	X34	Y34	Z34	X35	Y35	Z35	X36	Y36	Z36	X37	Y37	Z37	X38	Y38	Z38	X39	Y39	Z39	X40	Y40	Z40	X41	Y41	Z41	X42	Y42	Z42	X43	Y43	Z43	X44	Y44	Z44	X45	Y45	Z45	X46	Y46	Z46	X47	Y47	Z47	X48	Y48	Z48	X49	Y49	Z49	X50	Y50	Z50	X51	Y51	Z51	X52	Y52	Z52	X53	Y53	Z53	X54	Y54	Z54	X55	Y55	Z55	X56	Y56	Z56	X57	Y57	Z57	X58	Y58	Z58	X59	Y59	Z59	X60	Y60	Z60	X61	Y61	Z61	X62	Y62	Z62	X63	Y63	Z63	X64	Y64	Z64	X65	Y65	Z65	X66	Y66	Z66	X67	Y67	Z67	X68	Y68	Z68	X69	Y69	Z69	X70	Y70	Z70	X71	Y71	Z71

488	2.44	43.157	1226.2	9.8263	29.3	1044.3	36.608	9	2014	4	202.33	664.03	163.05	75.68	1085.2	209.8	118.73	1483.5	19.025	152.15	1618.2	-39.755	62.957	62.012	-80.978	-2.5578	76.386	-143.67	156.48	1607.3	96.901	97.412	1363.6	165.43	12.763	66.417	-64.614	208.79	391.15	-60.972	190.98	830	-277.34	-63.494	185.93	-144.2	68.129	270.1	-74.653	272.58	679.98	127.09	188.58	1237.9	249.94	71.436	1094.4	-218.18	137.3	330.64	-66.775	236.83	517.52	-138.34	140.75	334.43	-139.74	246.37	573.95	-142.53	228.23	526.11	133.36	206.89	1429	-152.3	241.72	286.86	116.05	221.65	572.24	136.97	214.26	495.43	7.3856	221.24	510.77	70.373	241.57	200.8	38.569	223.02	1041.5	-155.45	120.88	1104.1	-287.42	168.43	1234.1	-240.73	270.74	384.47	51.317	388.5	30.17	90.499	219.04	496.87	-12.723	227.93	507.19	-75.534	145	920.07	285.1	163.32	801.47	250.23	230.53	782.41	279.35	338.76	31.157	46.401	257	288.28	42.481	240.44	831.46	233.06	130.47	33.077	14.81	291.5	22.428	123.05	213.74	73.269	5.3894	178.72	67.826	79.228	331.04	1647.5	-12.298	333.64	1640.9	69.696	29.813	1040.5	-32.834	29.556	1042.4	1.8868	263.88	819.57	-260.93	-46.768	181.9	-60.278	229.58	667.3	-156.17	-133.97	206.04	-102.68	219.58	996.5	157.04	213.56	758.48	-166.77	137	943.98	-119.39	125.43	1030.7	1.3408	221.3	1019	0.79488	221.3	1019	0.79488	134.66	913.4	93.1	300.71	1009.3	0.27474	230.97	1097.6	12.212	220.43	1007.6	79.974	250.05	861.67	-225	289.42	679.53	-114.63	188.43	756.48	178.89	227.23	1419.6	170.6	113.13	1078.9	287.03	329.41	1240.4	3.0587
489	2.445	47.636	1227.2	9.9271	34.071	1045	36.676	9	2014	4	204.17	663.9	162.19	81.12	1085.8	210.25	123.65	1484	19.232	157.04	1618.7	-39.791	78.125	61.816	-81.532	11.643	75.702	-143.67	161.27	1608	96.791	102.15	1364.4	165.47	27.726	65.707	-64.915	219.11	392.07	-60.713	191.33	830.19	-277.03	-51.136	184.1	-143.87	79.477	269.86	-74.511	275.01	679.87	126.88	193.37	1238.8	250.39	74.246	1095.6	-216.8	147.68	331.09	-66.56	245.3	519.15	-137.91	151.29	335.03	-139.39	254.47	575.4	-142.28	230.3	526.12	133.27	211.65	1429.4	-152.34	242.9	286.67	115.75	223.89	572.45	137.23	215.77	495.31	7.2299	223.03	510.71	70.252	242.35	200.64	38.389	228	1041.9	-155.06	123.31	1104.7	-286.72	171.89	1234.5	-240.36	271.83	384.3	51.237	388.6	29.998	90.456	229.97	496.51	-12.071	237.64	507.83	-74.993	150.57	920.76	285.94	169.99	802.47	251.11	236.93	783.71	280.15	338.81	31.047	46.385	257.93	287.98	42.452	246.58	832.89	233.54	130.75	32.985	14.737	291.46	22.392	123.11	213.92	73.125	5.1962	179.22	68.13	79.341	335.97	1648.1	-12.296	338.51	1641.6	69.653	34.351	1041.2	-32.452	34.211	1043.1	2.1119	264.09	819.25	-261.03	-34.013	180.31	-59.899	236.62	668.51	-156.23	-122.04	203.02	-102.17	223.95	997.12	157.67	219.64	759.67	-166.44	141.79	944.41	-119.06	130.09	1031.3	1.7085	225.98	1019.5	1.3051	225.98	1019.5	1.3051	139.03	913.97	93.592	305.38	1009.7	0.93804	235.68	1098.1	12.682	224.95	1008.2	80.491	250.91	861.26	-225.02	297.38	681.54	-114.9	192.38	756.72	179.08	231.99	1420.4	170.81	118.54	1079.9	287.78	333.93	1240.8	3.2292
490	2.45	52.163	1227.7	10.114	38.948	1045.8	36.718	9	2014	4	207.66	664.37	160.94	86.443	1086.4	210.9	128.53	1484.5	19.28	162	1619.2	-39.878	93.22	61.587	-81.984	25.997	74.963	-143.69	166.08	1608.4	96.938	106.96	1365.3	165.8	42.678	65.389	-65.196	228.28	392.83	-60.158	191.82	830.37	-276.84	-38.737	182.04	-143.29	90.844	269.44	-74.399	277.98	679.02	127.27	198.53	1239.8	250.68	77.157	1096.4	-215.88	158.42	331.54	-66.403	253.85	520.74	-137.81	161.76	335.71	-139.3	262.42	576.84	-142.2	232.18	525.94	133.33	216.36	1429.8	-152.31	243.92	286.33	115.57	226.29	572.32	137.18	217.76	495.28	7.3769	224.97	510.61	70.354	243.03	200.42	38.048	232.93	1042.3	-154.64	126	1105.4	-285.95	175.55	1234.9	-239.87	272.98	384.04	51.143	388.93	29.763	90.336	238.48	496.89	-11.456	246.16	508.81	-74.633	156.35	922.05	286.7	176.61	803.67	251.72	243.75	785.36	280.41	338.96	30.949	46.115	259.32	287.71	41.942	252.53	834.28	234.23	130.78	32.99	14.568	291.43	22.373	123.18	213.9	72.877	5.5387	179.51	68.432	79.66	340.9	1648.4	-12.223	343.35	1642	69.867	39.189	1041.9	-32.271	39.069	1043.9	2.2238	264.5	818.85	-260.96	-21.748	178.2	-59.334	243.85	669.78	-156.05	-109.78	199.75	-101.83	228.16	997.52	158.36	226.12	760.62	-166.36	146.37	944.9	-118.76	134.81	1031.9	2.0432	230.54	1019.9	1.8626	230.54	1019.9	1.8626	143.13	914.46	94.076	309.93	1010	1.6526	240.4	1098.5	13.247	229.34	1008.6	81.048	251.98	860.92	-224.99	304.33	683.29	-115.09	196.2	756.86	179.08	236.8	1421.2	171.01	123.39	1080.8	288.38	338.64	1241.2	3.3249
491	2.455	57.011	1228.4	10.366	43.575	1046.2	37.029	9	2014	4	212.6	665.24	159.53	91.598	1087.1	211.35	133.3	1485	19.195	166.99	1619.8	-39.984	108.39	61.319	-82.386	40.346	74.026	-143.8	171.09	1609.1	96.804	111.79	1366.1	166.1	57.774	64.531	-65.274	236.92	393.57	-59.579	192.32	830.57	-276.66	-26.098	179.69	-142.82	102.18	268.59	-74.678	280.83	678.34	127.37	203.47	1240.5	251.1	80.296	1097.7	-214.72	168.83	331.89	-66.147	262.42	522.29	-137.63	172.43	336.34	-139.26	270.02	578.04	-141.76	234.39	525.74	133.25	220.9	1430.2	-152.12	244.76	285.83	115.52	228.49	572.09	136.92	219.79	494.93	7.8501	227.09	510.33	70.548	243.68	200.26	37.764	237.75	1042.7	-154.14	128.77	1106.1	-285.17	179.04	1235.1	-239.44	274.3	383.67	50.796	389.3	29.366	90.279	247.28	498.66	-11.547	254.85	510.47	-74.587	162.62	923.05	287.27	182.63	804.64	252.25	250.48	787.01	280.71	339.2	30.771	45.683	260.58	287.64	41.532	258.65	835.71	234.92	131.02	32.982	14.394	291.42	22.377	123.26	214.01	72.611	5.4636	179.66	68.524	79.837	345.83	1648.8	-12.218	348.29	1642.4	69.855	43.991	1042.6	-32.053	43.783	1044.4	2.4883	264.85	818.48	-260.92	-8.9565	176.41	-58.861	250.91	671.19	-156.02	-97.536	196.31	-101.36	232.28	997.79	158.9	232.55	761.92	-166.36	150.96	945.39	-118.47	139.4	1032.3	2.4349	235.02	1020.2	2.3816	235.02	1020.2	2.3816	147.24	914.87	94.395	314.38	1010.2	2.3283	244.96	1098.8	13.817	233.63	1008.9	81.56	252.83	860.47	-224.85	310.96	685.01	-115.07	199.93	756.95	179.26	241.54	1422	171.06	128.89	1081.7	288.73	343.34	1241.6	3.342
492	2.46	61.831	1228.9	10.743	48.08	1046.6	37.167	9	2014	4	217.86	665.7	158.22	96.545	1087.7	211.89	138.01	1485.5	19.304	171.84	1620.2	-40.089	123.94	61.05	-82.605	55.175	73.037	-143.96	175.65	1609.6	96.51	116.76	1366.8	166.38	73.194	63.663	-65.372	246.32	394.44	-59.431	192.84	830.72	-276.6	-13.347	177.43	-142.5	114.01	267.94	-74.825	283.69	678.3	127.03	208.41	1241.4	251.4	83.353	1098.6	-213.55	180.16	332.66	-66.382	270.73	523.7	-137.43	183	336.64	-139.05	277.62	579.36	-141.63	236.32	525.47	132.94	225.55	1430.5	-152.17	246.02	285.6	115.18	230.51	571.75	136.34	221.89	493.99	7.3056	229.11	509.73	70.124	244.26	200.15	37.41	242.61	1043	-153.77	131.54	1106.7	-284.52	182.67	1235.6	-238.93	275.4	383.41	50.491	389.7	28.994	90.197	256.1	500.74	-11.592	263.41	512.22	-74.509	168.47	923.88	287.95	188.6	805.83	252.77	256.79	788.26	281.62	339.42	30.584	45.305	260.6	287.42	41.674	265.16	836.85	235.46	131.27	32.97	14.151	291.44	22.367	123.35	214.33	72.46	5.043	179.85	68.476	79.843	350.84	1649.2	-12.375	353.13	1642.8	69.584	48.902	1043.1	-31.638	48.491	1044.8	2.7647	265.13	817.96	-261.04	4.1778	173.76	-58.473	257.53	672.27	-155.91	-84.992	192.45	-100.52	236.84	998.04	159.46	238.94	763.14	-166.1	155.68	945.73	-118.18	144.11	1032.7	2.8042	239.73	1020.5	2.8437	239.73	1020.5	2.8437	151.76	915.13	94.815	319.09	1010.5	2.8571	249.71	1099.1	14.31	238.27	1009.2	82.018	253.83	860.01	-224.88	317.77	686.7	-114.93	203.58	757.12	179.16	246.4	1422.9	171.25	133.74	1082.6	289.48	347.93	1242	3.4514
493	2.465	66.663	1229.1	11.094	52.411	1047.1	37.705	9	2014	4	221.96	665.07	157.47	101.79	1088.4	212.77	142.82	1486	19.217	176.82	1620.7	-40.305	139.59	60.654	-82.782	70.278	71.941	-143.84	180.66	1610.3	96.126	121.77	1367.4	166.68	88.595	62.716	-65.365	256.75	395.6	-59.729	193.29	830.86	-276.54	-0.47958	174.82	-142.08	125.88	266.98	-74.486	286.6	677.95	126.54	213.29	1242.3	251.8	86.193	1099.6	-212.79	192.62	333.72	-67.074	278.9	525.23	-137.35	193.78	337.21	-138.93	285.11	580.8	-141.39	238.19	525.31	132.68	230.33	1430.8	-152.4	247.33	285.46	114.8	232.72	571.27	136.12	223.48	493.33	6.9234	230.84	509.32	69.801	244.85	199.97	37.085	247.56	1043.5	-153.63	134.32	1107.5	-283.8	186.15	1235.9	-238.57	276.68	383.14	49.997	390.01	28.615	90.023	265.29	502.13	-11.478	272.09	513.68	-74.412	173.83	924.89	288.69	194.74	806.85	253.31	263.16	789.51	282.45	339.64	30.422	45.259	260.34	286.89	41.838	271.45	838.08	236.09	131.14	32.985	14.239	291.44	22.355	123.36	214.69	72.304	4.5753	180.09	68.455	79.761	355.75	1649.5	-12.482	358.05	1643.2	69.376	53.562	1043.7	-31.406	52.987	1045.4	3.1497	265.13	816.99	-260.86	17.574	171.33	-58.171	264.45	673.55	-155.76	-72.15	187.96	-99.764	241.25	998.27	159.81	244.6	764.23	-166.36	160.39	946.18	-118.21	148.7	1033.1	3.1193	244.41	1020.9	3.0889	244.41	1020.9	3.0889	156.1	915.43	94.934	323.76	1010.7	3.2161	254.47	1099.4	14.62	242.81	1009.5	82.253	254.68	859.63	-224.85	324.4	688.42	-114.81	206.56	756.68	179.6	251.07	1423.6	171.37	138.95	1083.1	290.24	352.41	1242.2	3.6834
